<?xml version="1.0" encoding="UTF-8" standalone="no"?>
<!-- Created with Inkscape (http://www.inkscape.org/) -->
<svg
   xmlns:dc="http://purl.org/dc/elements/1.1/"
   xmlns:cc="http://creativecommons.org/ns#"
   xmlns:rdf="http://www.w3.org/1999/02/22-rdf-syntax-ns#"
   xmlns:svg="http://www.w3.org/2000/svg"
   xmlns="http://www.w3.org/2000/svg"
   xmlns:sodipodi="http://sodipodi.sourceforge.net/DTD/sodipodi-0.dtd"
   xmlns:inkscape="http://www.inkscape.org/namespaces/inkscape"
   id="svg2514"
   sodipodi:version="0.32"
   inkscape:version="0.46"
   width="378"
   height="396"
   version="1.0"
   sodipodi:docname="antenna.svg"
   inkscape:output_extension="org.inkscape.output.svg.inkscape">
  <metadata
     id="metadata2519">
    <rdf:RDF>
      <cc:Work
         rdf:about="">
        <dc:format>image/svg+xml</dc:format>
        <dc:type
           rdf:resource="http://purl.org/dc/dcmitype/StillImage" />
      </cc:Work>
    </rdf:RDF>
  </metadata>
  <defs
     id="defs2517">
    <inkscape:perspective
       sodipodi:type="inkscape:persp3d"
       inkscape:vp_x="0 : 526.18109 : 1"
       inkscape:vp_y="0 : 1000 : 0"
       inkscape:vp_z="744.09448 : 526.18109 : 1"
       inkscape:persp3d-origin="372.04724 : 350.78739 : 1"
       id="perspective2521" />
  </defs>
  <sodipodi:namedview
     inkscape:window-height="719"
     inkscape:window-width="689"
     inkscape:pageshadow="2"
     inkscape:pageopacity="0.0"
     guidetolerance="10.0"
     gridtolerance="10.0"
     objecttolerance="10.0"
     borderopacity="1.0"
     bordercolor="#666666"
     pagecolor="#ffffff"
     id="base"
     showgrid="false"
     inkscape:zoom="1.2575758"
     inkscape:cx="189"
     inkscape:cy="198"
     inkscape:window-x="1742"
     inkscape:window-y="60"
     inkscape:current-layer="svg2514" />
  <path
     style="fill:#ebe50c;fill-opacity:1"
     d="M 173.42771,328.45783 C 160.72849,327.9694 160.58778,327.93943 167.34619,327.16272 C 175.69608,326.2031 176.70465,325.69032 173.98663,323.78655 C 172.83825,322.98219 171.20656,320.66667 170.36065,318.64095 C 169.51475,316.61524 167.56838,313.81155 166.0354,312.41054 C 164.22096,310.75231 163.01483,308.40413 162.57964,305.68261 C 161.95954,301.8047 162.2438,301.06454 166.50513,295.46126 C 171.80594,288.49115 175.65819,286.02466 179.16261,287.35704 C 183.4965,289.00478 183.81308,290.26798 183.5802,304.98415 C 183.34619,319.77237 182.54098,322.91753 178.61234,324.38876 C 176.65534,325.12164 176.8445,325.32357 180.42771,326.32678 C 182.62771,326.94272 185.4957,327.44919 186.80101,327.45225 L 189.17431,327.45783 L 188.84232,315.70783 C 188.65972,309.24533 188.60424,290.88134 188.71902,274.89896 C 188.89549,250.32601 189.16779,245.54043 190.48288,243.89896 C 191.97959,242.03078 191.99757,242.04145 190.96106,244.18285 C 190.24608,245.65999 189.89888,259.44101 189.9281,285.18285 C 189.95231,306.50909 189.96213,324.91785 189.94992,326.0912 C 189.92077,328.8914 188.81575,329.04968 173.42771,328.45783 z M 178.30133,311.17956 C 178.63164,307.75761 178.98685,301.80783 179.0907,297.95783 C 179.25207,291.97487 179.02305,290.90836 177.5144,290.61733 C 174.87748,290.10864 170.67827,294.46277 171.42079,296.93573 C 171.75472,298.04788 172.16154,302.87876 172.32483,307.67102 C 172.50244,312.88366 173.13824,317.00657 173.90739,317.93335 C 176.02487,320.48475 177.64325,317.99718 178.30133,311.17956 z M 145.59438,326.79116 C 145.22771,326.4245 144.98695,324.512 145.05935,322.54116 L 145.19099,318.95783 L 145.80935,322.45783 C 146.36978,325.62995 146.80243,326.0148 150.42771,326.56592 L 154.42771,327.17402 L 150.34438,327.31592 C 148.09854,327.39397 145.96104,327.15783 145.59438,326.79116 z M 148.26465,323.89351 C 147.93449,323.03313 147.94974,319.99563 148.29853,317.14351 C 148.84816,312.64901 154.72138,259.73002 156.51045,243.1522 C 157.02134,238.4183 156.81217,236.98764 155.37737,235.4022 C 152.31746,232.02104 150.2526,232.96063 148.11282,238.70783 L 146.15815,243.95783 L 139.68023,244.25039 L 133.20231,244.54295 L 125.55141,230.36284 L 117.90051,216.18274 L 120.52448,209.62385 C 122.39279,204.9538 125.15884,200.84928 130.12941,195.37116 C 142.58085,181.64826 144.06628,178.22784 138.65849,175.73163 C 135.87006,174.4445 128.67662,161.24655 129.10799,158.20913 C 129.38789,156.2382 130.29947,156.8762 136.42771,163.33214 C 149.36855,176.96496 166.19889,189.42606 185.42771,199.61149 L 197.42771,205.96785 L 197.71314,215.05455 C 198.03427,225.27764 197.02395,229.09054 193.65455,230.37159 C 189.74709,231.8572 188.42036,234.14133 189.88035,236.86933 C 190.94101,238.85121 190.84858,239.64831 189.28108,242.03703 C 187.67178,244.48945 187.36186,247.63324 186.92771,265.90961 L 186.42771,286.95783 L 184.47879,283.17909 C 182.8387,279.99913 182.6971,278.77382 183.58519,275.44658 C 184.39887,272.39813 184.33579,271.05776 183.30972,269.59284 C 182.57779,268.54786 181.28713,263.72579 180.4416,258.87712 C 179.59606,254.02846 178.48009,249.79922 177.96167,249.47882 C 176.16967,248.3713 168.92771,249.61441 168.92771,251.02953 C 168.92771,251.77843 167.34224,253.97664 165.40444,255.91443 C 162.31832,259.00055 161.73767,260.40054 160.72464,267.19777 C 160.08855,271.4658 159.51954,278.33283 159.46018,282.45783 C 159.4001,286.63174 158.76071,291.02723 158.01841,292.36922 C 157.08437,294.05786 156.87512,296.64025 157.32026,300.98507 C 157.82109,305.87352 157.63477,307.45606 156.44182,308.44612 C 155.50627,309.22256 154.92771,311.39697 154.92771,314.13665 C 154.92771,317.81137 155.45405,319.05131 158.00169,321.37822 L 161.07568,324.18587 L 158.75169,324.8082 C 154.28822,326.00344 148.89376,325.53293 148.26465,323.89351 z M 171.92771,235.01803 C 176.05271,235.02577 181.34021,235.39244 183.67771,235.83286 C 187.04441,236.4672 187.92771,236.34102 187.92771,235.22575 C 187.92771,234.45142 189.95271,231.99825 192.42771,229.77426 L 196.92771,225.73065 L 196.92771,217.24923 C 196.92771,207.40007 197.14188,207.69657 185.92771,202.02037 C 177.68089,197.84614 159.98332,186.2854 152.92771,180.46349 C 150.45271,178.42125 147.45032,176.23747 146.25572,175.61065 C 144.29671,174.58272 144.01981,174.76201 143.43183,177.43906 C 142.62986,181.09042 144.45023,186.81034 147.89333,191.45783 C 153.08459,198.46498 153.92771,200.3882 153.92771,205.22265 C 153.92771,207.882 153.40167,210.58387 152.75873,211.22681 C 151.28137,212.70417 150.81596,223.54029 152.15847,225.2025 C 152.71138,225.88707 152.8903,227.46207 152.55608,228.7025 C 151.64138,232.09729 157.31832,236.54878 161.42448,235.65654 C 163.07626,235.29762 167.80271,235.01029 171.92771,235.01803 z M 139.42771,169.45783 C 136.30423,166.19762 134.64799,165.56533 135.57767,167.98802 C 136.06722,169.26378 140.34626,172.27869 141.8648,172.41779 C 142.1052,172.43981 141.00851,171.10783 139.42771,169.45783 z M 146.17989,314.95783 C 146.16879,312.75783 146.3645,311.74008 146.61479,312.69617 C 146.86508,313.65226 146.87416,315.45226 146.63497,316.69617 C 146.39578,317.94008 146.19099,317.15783 146.17989,314.95783 z M 147.17989,305.95783 C 147.16879,303.75783 147.3645,302.74008 147.61479,303.69617 C 147.86508,304.65226 147.87416,306.45226 147.63497,307.69617 C 147.39578,308.94008 147.19099,308.15783 147.17989,305.95783 z M 148.20007,296.45783 C 148.20007,293.98283 148.39509,292.97033 148.63344,294.20783 C 148.8718,295.44533 148.8718,297.47033 148.63344,298.70783 C 148.39509,299.94533 148.20007,298.93283 148.20007,296.45783 z M 149.20007,286.45783 C 149.20007,283.98283 149.39509,282.97033 149.63344,284.20783 C 149.8718,285.44533 149.8718,287.47033 149.63344,288.70783 C 149.39509,289.94533 149.20007,288.93283 149.20007,286.45783 z M 150.20007,277.45783 C 150.20007,274.98283 150.39509,273.97033 150.63344,275.20783 C 150.8718,276.44533 150.8718,278.47033 150.63344,279.70783 C 150.39509,280.94533 150.20007,279.93283 150.20007,277.45783 z M 151.20007,268.45783 C 151.20007,265.98283 151.39509,264.97033 151.63344,266.20783 C 151.8718,267.44533 151.8718,269.47033 151.63344,270.70783 C 151.39509,271.94533 151.20007,270.93283 151.20007,268.45783 z M 152.20007,259.45783 C 152.20007,256.98283 152.39509,255.97033 152.63344,257.20783 C 152.8718,258.44533 152.8718,260.47033 152.63344,261.70783 C 152.39509,262.94533 152.20007,261.93283 152.20007,259.45783 z M 153.20007,249.45783 C 153.20007,246.98283 153.39509,245.97033 153.63344,247.20783 C 153.8718,248.44533 153.8718,250.47033 153.63344,251.70783 C 153.39509,252.94533 153.20007,251.93283 153.20007,249.45783 z M 136.69562,246.7331 C 138.49297,246.51054 141.19297,246.51513 142.69562,246.7433 C 144.19827,246.97148 142.72771,247.15357 139.42771,247.14796 C 136.12771,247.14235 134.89827,246.95566 136.69562,246.7331 z M 123.30217,232.76942 C 118.97122,225.2408 115.13522,218.34826 114.77773,217.45268 C 114.42024,216.5571 115.37576,212.61669 116.90111,208.69621 C 119.19728,202.79455 121.28783,199.82712 129.05109,191.44993 C 134.20823,185.88495 138.55776,180.76537 138.7167,180.07309 C 138.87565,179.3808 137.90222,178.31162 136.55354,177.69712 C 134.04515,176.55422 124.92771,159.99649 124.92771,156.58402 C 124.92771,155.66525 123.56196,153.25662 121.8927,151.23153 C 115.42444,143.38441 107.54986,124.60266 106.3119,114.06963 C 105.6925,108.79948 105.91648,107.9973 110.54279,98.916887 L 115.42771,89.328897 L 122.42771,85.970497 C 133.54838,80.635112 140.20736,79.035114 151.42771,79.002472 C 162.36232,78.970661 177.33643,82.272529 187.80688,87.024257 L 193.18604,89.465457 L 205.30688,87.033717 C 235.51035,80.974156 247.1492,79.249361 248.49984,80.632821 C 249.21131,81.361577 253.2007,94.441897 257.36516,109.70021 L 264.93691,137.44259 L 272.97057,148.20021 C 282.94135,161.55177 289.10337,173.53097 289.69974,180.72232 C 290.15422,186.20277 287.37858,197.51657 283.87666,204.45783 C 278.44815,215.21782 266.56709,219.45783 241.8447,219.45783 C 229.95127,219.45783 220.40302,217.86084 208.89566,213.94693 C 204.87062,212.57792 201.2321,211.45783 200.81006,211.45783 C 200.38801,211.45783 199.87045,213.37033 199.65992,215.70783 L 199.27712,219.95783 L 199.10242,215.20783 C 198.89474,209.56154 198.92357,209.55506 209.00256,212.98368 C 223.65912,217.96949 232.27187,218.91232 250.3144,217.50608 C 275.32208,215.55696 280.32534,212.33441 285.82426,194.63455 C 287.53116,189.14042 288.92222,183.36556 288.9155,181.80153 C 288.89729,177.55927 282.97541,164.86532 277.44225,157.20783 C 274.75967,153.49533 272.25953,150.45783 271.88638,150.45783 C 271.51323,150.45783 273.65205,155.29533 276.6393,161.20783 C 281.03388,169.90575 282.20627,173.29407 282.78101,178.95783 C 283.6671,187.68984 282.53377,192.86066 279.4232,194.27793 C 277.43697,195.18292 277.17145,195.88617 277.58494,199.14677 C 278.01535,202.54075 277.70488,203.24087 274.74798,205.54408 C 269.83433,209.37146 258.26253,213.66068 251.42771,214.18801 C 243.17091,214.82505 221.82179,211.17418 209.29824,206.98354 C 198.68312,203.4315 187.27438,198.10622 180.42771,193.50759 C 178.22771,192.02994 174.40948,189.79137 171.94276,188.53298 C 158.71594,181.78539 134.24766,159.2253 125.60384,145.80786 C 119.25998,135.96056 117.43341,132.00194 114.90974,122.63123 C 112.31253,112.98742 112.62385,107.39839 116.14483,100.45783 C 120.48502,91.902467 122.12751,90.252997 129.77825,86.766437 C 138.7585,82.674007 150.96279,81.437201 162.74301,83.425725 C 166.76643,84.104886 170.30229,84.41658 170.6005,84.118378 C 170.8987,83.820177 168.50681,82.788728 165.2852,81.826269 C 153.9497,78.439788 139.25445,80.282254 123.17668,87.105767 C 117.11584,89.678027 116.78849,90.010377 112.41754,98.028977 C 109.93808,102.5776 107.65694,107.5724 107.34833,109.12852 C 105.8677,116.59446 114.97044,141.17312 122.80875,150.87377 C 124.54903,153.02753 126.20947,155.95253 126.4986,157.37377 C 127.57846,162.68182 133.90697,174.38263 136.89144,176.58914 C 138.56139,177.82378 139.91442,179.31182 139.89817,179.89589 C 139.88192,180.47996 135.40615,185.87726 129.95201,191.8899 C 122.21659,200.4174 119.54018,204.14613 117.78398,208.84216 C 116.54571,212.15327 115.58696,215.58434 115.65343,216.46677 C 115.78387,218.19845 129.22779,241.82526 131.72291,244.70783 C 132.55603,245.67033 132.77395,246.45783 132.20716,246.45783 C 131.64037,246.45783 127.63312,240.29805 123.30217,232.76942 z M 205.83058,190.29089 C 209.83135,189.3674 211.7181,189.39856 214.87444,190.44025 C 218.10506,191.50645 219.15402,191.5149 220.39528,190.48474 C 222.86686,188.43352 222.19932,186.77244 217.68498,183.74057 C 212.0636,179.96521 211.67495,177.78348 216.46375,176.88509 C 218.47715,176.50737 222.55521,176.44921 225.5261,176.75583 C 229.7691,177.19375 230.92771,177.01117 230.92771,175.90463 C 230.92771,175.12985 229.78311,174.20866 228.38416,173.85754 C 226.9852,173.50643 225.98714,172.93535 226.16624,172.58849 C 229.27077,166.57604 229.29622,166.44877 227.64578,165.19104 C 226.16294,164.06104 226.19323,163.49753 228.00765,158.45783 C 229.25424,154.99531 229.72903,152.0317 229.28928,150.45783 C 228.40908,147.30752 228.40979,147.3096 227.48139,145.20011 C 226.40569,142.75593 229.4065,138.46098 232.20076,138.44545 C 234.75078,138.43128 239.51085,132.03295 239.07313,129.20783 C 238.88895,128.0191 239.4636,127.45783 240.86485,127.45783 C 243.6919,127.45783 243.46625,126.41295 239.67771,121.96077 C 236.50163,118.22834 223.97661,109.45783 221.82246,109.45783 C 221.22582,109.45783 221.95015,111.52678 223.43207,114.05549 L 226.12648,118.65315 L 223.0271,122.96897 C 221.32243,125.34267 219.92771,127.67286 219.92771,128.14717 C 219.92771,128.62149 217.93575,132.21043 215.50114,136.1226 C 213.06652,140.03477 210.51606,145.19813 209.83344,147.59674 C 209.15083,149.99534 207.56666,153.08283 206.31307,154.45783 C 205.05947,155.83283 203.3264,158.65129 202.4618,160.72108 C 200.98763,164.25012 201.01545,164.76016 202.90875,168.91622 C 205.56187,174.74017 205.49522,175.1173 201.67771,175.88102 C 199.89021,176.23863 197.19426,176.79018 195.68671,177.1067 C 192.33031,177.81139 185.66875,175.3044 180.92771,171.55235 C 172.53828,164.91297 170.45539,165.57379 173.94095,173.76901 C 176.77074,180.4224 178.61311,182.45428 181.8327,182.47257 C 184.57936,182.48818 185.71756,183.04466 193.52434,188.18883 C 199.11528,191.87289 199.0358,191.85932 205.83058,190.29089 z M 190.10562,168.64716 C 189.92846,166.82629 190.20391,164.80129 190.71773,164.14716 C 191.23154,163.49303 191.93141,161.83283 192.27299,160.45783 C 192.61457,159.08283 194.73272,156.04821 196.97998,153.71423 C 200.68836,149.86274 207.92771,139.06778 207.92771,137.3895 C 207.92771,136.39669 198.65866,137.53619 197.17771,138.71107 C 196.49021,139.25648 195.92494,140.66012 195.92155,141.83027 C 195.91816,143.00043 195.17927,145.30783 194.27957,146.95783 C 193.37988,148.60783 191.79715,151.64533 190.7624,153.70783 C 189.72765,155.77033 188.2528,157.45783 187.48496,157.45783 C 186.71712,157.45783 183.69012,155.2763 180.7583,152.60998 C 174.14635,146.59681 171.89847,145.39057 166.93584,145.19268 C 162.07008,144.99864 161.52988,145.52365 162.311,149.68739 C 163.15986,154.21221 167.74974,159.50795 176.30833,165.83733 C 184.33859,171.77599 185.57178,172.41806 188.42771,172.14738 C 190.06119,171.99257 190.36868,171.35111 190.10562,168.64716 z M 162.34592,163.85084 C 164.59144,162.98916 164.31695,161.03468 161.27328,156.2132 C 158.8856,152.43087 153.92771,142.11502 153.92771,140.92932 C 153.92771,140.01922 166.46837,140.48027 170.24592,141.52924 C 172.7558,142.2262 174.47004,142.25262 175.24875,141.60635 C 176.04457,140.94588 177.06955,141.08838 178.37167,142.04051 C 179.43774,142.82004 180.66792,143.45783 181.10542,143.45783 C 182.43172,143.45783 185.15634,136.03404 183.97461,135.64013 C 180.72576,134.55718 186.23585,127.0462 190.9744,126.09849 C 192.67163,125.75905 193.7911,125.0458 193.46212,124.51351 C 193.13314,123.98121 194.11582,122.76896 195.64584,121.81962 C 200.4233,118.85533 203.92473,115.16787 204.0008,113.02074 C 204.11698,109.74145 207.34362,105.06785 209.90967,104.46209 L 212.26188,103.90681 L 209.84374,102.32238 C 208.51376,101.45095 204.562,99.292417 201.06205,97.525647 C 195.05721,94.494407 194.42996,94.377757 189.93449,95.456197 C 187.31428,96.084777 180.95335,96.975437 175.79909,97.435437 C 170.64483,97.895437 162.91198,98.810437 158.61499,99.468757 C 154.31799,100.12709 150.5949,100.45835 150.34145,100.2049 C 150.088,99.951447 150.14856,99.045877 150.47603,98.192517 C 151.20489,96.293117 154.82144,94.851617 161.42771,93.827327 C 164.17771,93.400937 166.87771,92.970277 167.42771,92.870307 C 167.97771,92.770327 171.35271,92.622397 174.92771,92.541577 L 181.42771,92.394627 L 178.78116,90.063177 C 175.18436,86.894617 163.29476,84.895968 149.77743,85.187633 C 140.05273,85.397464 138.47902,85.712797 131.66925,88.816107 C 124.2728,92.186777 120.92771,95.258657 120.92771,98.680337 C 120.92771,99.979587 121.71674,100.45783 123.86032,100.45783 C 127.91014,100.45783 128.95979,103.78069 125.75397,106.45252 C 122.87485,108.85206 122.06943,108.89606 119.73282,106.78146 C 115.32857,102.79567 113.7742,111.52343 116.80556,123.21794 C 119.64611,134.17633 127.45632,147.48523 130.09103,145.85689 C 130.64217,145.51627 133.04196,146.63713 135.42389,148.3477 C 137.80582,150.05827 140.22777,151.45783 140.806,151.45783 C 141.38424,151.45783 142.33901,152.35783 142.92771,153.45783 C 143.51641,154.55783 144.62458,155.45783 145.39031,155.45783 C 146.15604,155.45783 147.6169,156.47033 148.63667,157.70783 C 150.49294,159.96045 157.39852,164.14538 159.59592,164.34938 C 160.23844,164.40903 161.47594,164.18469 162.34592,163.85084 z M 268.41243,144.79417 C 264.11474,138.23507 262.83607,134.70466 257.42495,114.45783 C 248.96353,82.797703 248.93761,82.710938 247.61494,81.613215 C 246.78441,80.923937 244.00809,81.062226 238.91154,82.046732 C 234.79544,82.841845 224.90271,84.618268 216.92771,85.994337 C 201.58005,88.642547 195.92771,90.102127 195.92771,91.417057 C 195.92771,91.859327 202.35784,95.644507 210.2169,99.828567 C 218.07595,104.01263 227.41345,109.47594 230.9669,111.96924 C 241.18664,119.14002 255.70256,132.39793 258.43043,137.05268 C 260.82066,141.13131 267.41166,147.45783 269.27056,147.45783 C 269.75851,147.45783 269.37235,146.25918 268.41243,144.79417 z M 234.96289,100.52357 C 233.59049,97.959207 233.65483,97.457827 235.35628,97.457827 C 237.23675,97.457827 240.10264,100.36578 239.37788,101.53845 C 238.41329,103.0992 236.05067,102.5561 234.96289,100.52357 z M 215.92771,125.45783 C 215.92771,124.35783 215.29484,123.45783 214.52133,123.45783 C 213.60728,123.45783 213.29804,124.15797 213.63796,125.45783 C 213.92562,126.55783 214.55849,127.45783 215.04434,127.45783 C 215.53019,127.45783 215.92771,126.55783 215.92771,125.45783 z M 219.99345,120.42265 C 222.59918,119.0281 222.4275,117.27599 219.4071,114.43847 C 217.10774,112.27833 216.74753,112.20944 215.30336,113.6536 C 214.17548,114.78149 213.9167,116.1312 214.40343,118.34728 C 215.11978,121.60881 216.6887,122.19129 219.99345,120.42265 z M 190.42331,90.450717 C 189.5041,88.963397 184.9166,86.800087 180.92771,85.972917 C 176.07059,84.9657 178.11609,86.947347 184.51112,89.444467 C 190.18779,91.661067 191.28698,91.848157 190.42331,90.450717 z M 147.0401,245.45474 C 147.92691,244.93649 149.22867,242.45456 149.93289,239.93933 C 150.85085,236.66071 151.66825,235.45236 152.8205,235.67063 C 153.9922,235.89259 154.4575,237.19211 154.53765,240.46646 L 154.64759,244.95783 L 154.23015,240.70783 C 153.71461,235.45901 152.46454,235.27272 150.87494,240.20783 C 149.47466,244.55519 148.14457,246.47028 146.55527,246.42742 C 145.93511,246.4107 146.15329,245.97299 147.0401,245.45474 z M 192.51617,240.08791 C 192.82722,239.27732 192.55538,237.63064 191.91207,236.42861 C 191.02952,234.77955 191.02516,233.96265 191.89431,233.10047 C 192.76076,232.24098 192.89073,232.36642 192.41878,233.60668 C 192.0737,234.51355 192.27204,235.5526 192.85954,235.9157 C 194.20253,236.74571 194.25616,240.1368 192.93916,240.95075 C 192.38358,241.29412 192.19832,240.91622 192.51617,240.08791 z M 195.14585,231.39556 C 196.09083,230.84476 197.31464,229.62095 197.86544,228.67597 C 198.41624,227.73099 198.88058,227.48819 198.8973,228.1364 C 198.91403,228.78462 198.22057,230.02212 197.35628,230.8864 C 196.492,231.75069 195.2545,232.44415 194.60628,232.42742 C 193.95807,232.4107 194.20087,231.94636 195.14585,231.39556 z M 199.00666,225.04116 C 198.96324,223.987 199.19958,223.39637 199.53188,223.72866 C 199.86417,224.06096 199.89969,224.92345 199.61082,225.64533 C 199.2916,226.44306 199.05464,226.20611 199.00666,225.04116 z"
     id="path2525" />
</svg>
